<svg xmlns="http://www.w3.org/2000/svg" viewBox="0 0 49.64 90.28"><defs><style>.cls-1{fill:#ffd9d9;}.cls-2{fill:#ffc9c9;}.cls-3{fill:#fff;}.cls-4{fill:#21cfcb;}</style></defs><title>paper_1</title><g id="Layer_2" data-name="Layer 2"><g id="Design"><path class="cls-1" d="M.52,55A6.83,6.83,0,0,0,10,55.1l3.62-3.4a.74.74,0,0,1,.53-.21H23.5a10.27,10.27,0,0,0,7.77-3.56l1.18,1a11.8,11.8,0,0,1-9,4.1H15V81.5a3.9,3.9,0,0,0,3.81,4.06,3.82,3.82,0,0,0,3.82-3.82V63h1.55V85.9a4.23,4.23,0,0,0,4.13,4.38,4.13,4.13,0,0,0,4.12-4.12V63H34V86.45A3.84,3.84,0,0,0,35,89.15a3.76,3.76,0,0,0,2.75,1.13,3.82,3.82,0,0,0,3.81-3.81V63h1.56V78.72a3.25,3.25,0,1,0,6.5-.16V45.51a16.48,16.48,0,0,0-3.89-11,.78.78,0,0,1-.19-.51V18.89H17.41V34a.8.8,0,0,1-.24.56s-2,2-3,3.07L.46,52.54A1.76,1.76,0,0,0,.52,55Z"/><rect class="cls-2" x="17.43" y="12.86" width="28.16" height="16.65" transform="translate(63.01 42.36) rotate(180)"/><rect class="cls-3" x="17.29" width="28.44" height="25.49"/><rect class="cls-4" x="15.69" width="31.63" height="20.82"/></g></g></svg>