<svg xmlns="http://www.w3.org/2000/svg" viewBox="0 0 51.98 89.67"><defs><style>.cls-1{fill:#ffd9d9;}.cls-2{fill:#ffc9c9;}.cls-3{fill:#fff;}.cls-4{fill:#ffd000;}</style></defs><title>rock</title><g id="Layer_2" data-name="Layer 2"><g id="Design"><path class="cls-1" d="M27.88,72.6V83.91a5.76,5.76,0,0,0,11.52,0V75.78h0V72.31a3.18,3.18,0,0,1-1.31.29Z"/><path class="cls-1" d="M14.34,83.83a5.84,5.84,0,1,0,11.67,0V72.6H14.34Z"/><path class="cls-1" d="M2.86,69.91V84.35a4.81,4.81,0,0,0,9.61,0V72.6H10.56A12.35,12.35,0,0,1,2.86,69.91Z"/><path class="cls-1" d="M46.63,62.19a5.36,5.36,0,0,0-5.36,5.36v8.23a5.37,5.37,0,0,0,5.36,5.36A5.28,5.28,0,0,0,50,79.91,5.34,5.34,0,0,0,52,75.78V67.55A5.36,5.36,0,0,0,46.63,62.19Z"/><path class="cls-1" d="M0,60.68c0,.07,0,.13,0,.2s0,.2,0,.3l0,.25,0,.25c0,.09,0,.17,0,.26s0,.15,0,.23l.06.27a1.6,1.6,0,0,0,0,.21l.06.27.07.22c0,.08,0,.16.07.25l.09.25a1.18,1.18,0,0,0,.07.2c0,.12.09.23.13.35s0,.07,0,.1a10.58,10.58,0,0,0,9.72,6.44H38.09a1.32,1.32,0,0,0,1.31-1.32V68a9.05,9.05,0,0,0-9-9.05H16.7V57.1h.16A10.17,10.17,0,0,0,27,47.85c0-.3,0-.6,0-.9V43.67h1.87V47c0,.24,0,.47,0,.71a12,12,0,0,1-5.57,9.44h7.08a10.93,10.93,0,0,1,10.08,6.73A7.2,7.2,0,0,1,52,62.71V55.57c0-4.86-2.39-10.33-6.46-14.9L45,40.3v-.24l-.66-.68a.94.94,0,0,1-.28-.66V25.37H10.25V38.72a.91.91,0,0,1-.35.72A26.47,26.47,0,0,0,0,60.17C0,60.34,0,60.51,0,60.68Z"/><rect class="cls-2" x="10.19" y="15.32" width="33.91" height="19.98" transform="translate(54.29 50.61) rotate(180)"/><rect class="cls-3" x="10.08" y="24.87" width="34.13" height="5.6"/><polygon class="cls-4" points="10.08 24.87 44.21 24.87 46.12 24.87 46.12 0 8.17 0 8.17 24.87 10.08 24.87"/></g></g></svg>