<svg xmlns="http://www.w3.org/2000/svg" viewBox="0 0 39.13 90.02"><defs><style>.cls-1{fill:#ffd9d9;}.cls-2{fill:#ffc9c9;}.cls-3{fill:#fff;}.cls-4{fill:#ff6230;}</style></defs><title>scissors</title><g id="Layer_2" data-name="Layer 2"><g id="Design"><path class="cls-1" d="M35,48.34A4.12,4.12,0,0,0,31,52v.1a3.4,3.4,0,0,1,0,.45v5.9a4.11,4.11,0,0,0,8.21,0v-6A4.11,4.11,0,0,0,35,48.34Z"/><path class="cls-1" d="M3.28,90a3.81,3.81,0,0,0,4.31-3.24l3.66-25.11A.78.78,0,0,1,12,61a.79.79,0,0,1,.77.67l3.64,25A3.81,3.81,0,1,0,24,85.6L21.35,66.9a5.66,5.66,0,0,1-1.75-4.08V55.36H12.82a10.31,10.31,0,0,1-8.76-4.88c0,6.78-.3,8.56-1.69,18.36C1.81,72.76,1.05,78.14,0,85.67A3.81,3.81,0,0,0,3.28,90Z"/><path class="cls-1" d="M21.16,55.36v7.46A4.08,4.08,0,0,0,22.63,66l.1.08.2.15.13.08.19.12.15.08.18.09.18.07.18.06.18.06.19,0,.18,0,.23,0,.15,0,.39,0a4.11,4.11,0,0,0,4.11-4.1V58.41h0V54.88a3.25,3.25,0,0,1-1.72.48Z"/><path class="cls-1" d="M12.82,53.81H27.65a1.74,1.74,0,0,0,1.71-1.4v0a1.84,1.84,0,0,0,0-.33,1.28,1.28,0,0,0,0-.19,6.22,6.22,0,0,0-6.21-6H15.69V44.28a7.38,7.38,0,0,0,7.37-7.37V34.5h1.56v2.41a8.93,8.93,0,0,1-3.9,7.37h2.46a7.78,7.78,0,0,1,7.22,4.91,5.65,5.65,0,0,1,8.73-.63V45.17A18.47,18.47,0,0,0,35.7,34.49a.82.82,0,0,1-.14-.45V18.18H7.41V34.24a.84.84,0,0,1-.13.44A18.11,18.11,0,0,0,4.07,45.06h0A8.77,8.77,0,0,0,12.82,53.81Z"/><rect class="cls-2" x="7.41" y="13.11" width="28.15" height="16.65" transform="translate(42.97 42.87) rotate(180)"/><rect class="cls-3" x="7.24" y="21.08" width="28.44" height="4.67"/><polygon class="cls-4" points="7.24 21.07 35.68 21.07 37.28 21.07 37.28 0 5.65 0 5.65 21.07 7.24 21.07"/></g></g></svg>